<?xml version="1.0" encoding="utf-8"?>
<!-- Generator: Adobe Illustrator 26.1.0, SVG Export Plug-In . SVG Version: 6.00 Build 0)  -->
<svg version="1.1" id="Capa_1" xmlns="http://www.w3.org/2000/svg" xmlns:xlink="http://www.w3.org/1999/xlink" x="0px" y="0px"
	 viewBox="0 0 500 500" style="enable-background:new 0 0 500 500;" xml:space="preserve">
<style type="text/css">
	.st0{fill:#7FC52E;}
</style>
<g>
	<path d="M165.52,269.1v6.01h-1.84c-6.07,0-9.96-3.82-9.96-10.67v-19.22h-15.4v29.53h-6.71v-29.53h-5.44v-5.65h5.44v-3.25
		c0-7.56,4.45-12.43,12.93-12.43h2.47v5.79h-2.9c-3.74,0-6.07,2.33-6.07,6.01v3.88h15.68v-15.68h6.71v41.19
		c0,3.1,1.56,4.02,4.45,4.02H165.52z"/>
	<path d="M201.13,250.94v8.34H179.3v4.1c0,3.53,2.4,6.08,7.56,6.08c5.09,0,7.56-2.33,7.56-5.65v-0.63h6.71v0.63
		c0,5.94-4.66,11.66-14.27,11.66s-14.27-5.94-14.27-12.08v-12.43c0-6.15,4.66-12.08,14.27-12.08S201.13,244.8,201.13,250.94z
		 M194.42,253.98v-3.04c0-3.53-2.47-6.08-7.56-6.08c-5.16,0-7.56,2.54-7.56,6.08v3.04H194.42z"/>
	<path d="M225.01,256.67l12.58,18.09h-7.7l-8.69-13l-8.76,13h-7.7l12.58-18.09l-11.87-17.1h7.63l8.12,12.01l8.05-12.01h7.63
		L225.01,256.67z"/>
	<path d="M292.58,223.89h6.64v50.87h-6.15l-0.57-4.8c-1.34,3.39-5.23,5.51-9.96,5.51c-7.77,0-12.22-4.88-12.22-12.79v-11.02
		c0-8.34,4.45-12.79,12.22-12.79c4.73,0,8.62,2.12,9.96,5.51L292.58,223.89z M292.51,251.58c0-3.67-2.9-6.71-7.7-6.71
		c-5.16,0-7.77,3.04-7.77,6.78v11.02c0,3.75,2.47,6.78,7.77,6.78c4.31,0,7.7-3.04,7.7-6.71V251.58z"/>
	<path d="M337.3,250.94v8.34h-21.83v4.1c0,3.53,2.4,6.08,7.56,6.08c5.09,0,7.56-2.33,7.56-5.65v-0.63h6.71v0.63
		c0,5.94-4.66,11.66-14.27,11.66s-14.27-5.94-14.27-12.08v-12.43c0-6.15,4.66-12.08,14.27-12.08S337.3,244.8,337.3,250.94z
		 M330.59,253.98v-3.04c0-3.53-2.47-6.08-7.56-6.08c-5.16,0-7.56,2.54-7.56,6.08v3.04H330.59z"/>
	<path d="M361.18,274.75h-7.07l-12.57-35.18h7.21l8.9,27.41l8.9-27.41h7.28L361.18,274.75z"/>
	<g>
		<path class="st0" d="M258.38,238.45v9.75h-8.64v-9.75H258.38z M258.38,266.36v9.75h-8.64v-9.75H258.38z"/>
	</g>
</g>
</svg>
