<?xml version="1.0" encoding="utf-8"?>
<!-- Generator: Adobe Illustrator 26.1.0, SVG Export Plug-In . SVG Version: 6.00 Build 0)  -->
<svg version="1.1" id="Capa_1" xmlns="http://www.w3.org/2000/svg" xmlns:xlink="http://www.w3.org/1999/xlink" x="0px" y="0px"
	 viewBox="0 0 500 500" style="enable-background:new 0 0 500 500;" xml:space="preserve">
<style type="text/css">
	.st0{fill:#7FC52E;}
</style>
<g>
	<path d="M168.9,269.96v6.07h-21.34v-6.07h7.21v-40.77h-7.21l-12.64-0.07c-3.25,0-4.59,1.49-4.59,4.81v5.23h10.38v6.07h-10.38v30.8
		h-7v-30.8h-6.71v-6.07h6.71v-5.3c0-7.63,4.59-10.81,11.52-10.81h26.91v46.91H168.9z"/>
	<path d="M173.35,257.67c0-11.66,8.27-19.43,18.16-19.43c11.23,0,17.8,7.98,17.8,19v2.19h-28.75c0.07,7.21,4.45,11.45,11.3,11.45
		c4.59,0,8.9-2.54,10.17-7.14l6.57,1.62c-2.26,7.28-8.69,11.59-16.74,11.59C180.63,276.95,173.35,268.97,173.35,257.67z
		 M202.18,254.13c-0.35-6.29-5.09-9.75-10.67-9.75c-5.65,0-10.39,4.1-10.88,9.75H202.18z"/>
	<path class="st0" d="M237.71,254.21l19.23-12.73v8.12l-14.2,8.97v0.71l14.2,8.9v7.98l-19.22-12.72L237.71,254.21z"/>
	<path d="M262.99,257.6c0-11.09,7.14-19.36,17.31-19.36c7.14,0,10.53,4.24,11.94,6.22h0.56v-21.41h6.99v52.99h-6.85v-5.09h-0.49
		c-1.27,1.62-4.52,6-11.73,6C270.55,276.95,262.99,268.83,262.99,257.6z M293.02,257.67c0-8.19-5.23-12.93-11.52-12.93
		c-6.57,0-11.44,5.37-11.44,12.93c0,7.77,5.09,12.86,11.52,12.86C288.57,270.52,293.02,264.66,293.02,257.67z"/>
	<path d="M308.07,257.67c0-11.66,8.27-19.43,18.16-19.43c11.23,0,17.8,7.98,17.8,19v2.19h-28.75c0.07,7.21,4.45,11.45,11.3,11.45
		c4.59,0,8.9-2.54,10.17-7.14l6.57,1.62c-2.26,7.28-8.69,11.59-16.74,11.59C315.35,276.95,308.07,268.97,308.07,257.67z
		 M336.89,254.13c-0.35-6.29-5.09-9.75-10.67-9.75c-5.65,0-10.39,4.1-10.88,9.75H336.89z"/>
	<path d="M347.63,239.16h7.42l10.1,30.31h0.56l10.03-30.31h7.63l-13.14,36.88h-9.4L347.63,239.16z"/>
	<polygon points="235.15,259.21 217.5,271.18 217.5,263.19 230.57,255.14 230.57,254.57 217.5,246.45 217.5,238.46 235.15,250.21 	
		"/>
</g>
</svg>
