<?xml version="1.0" encoding="utf-8"?>
<!-- Generator: Adobe Illustrator 26.1.0, SVG Export Plug-In . SVG Version: 6.00 Build 0)  -->
<svg version="1.1" id="Capa_1" xmlns="http://www.w3.org/2000/svg" xmlns:xlink="http://www.w3.org/1999/xlink" x="0px" y="0px"
	 viewBox="0 0 200 150" style="enable-background:new 0 0 200 150;" xml:space="preserve">
<style type="text/css">
	.st0{fill:#7FC52E;}
</style>
<g>
	<path d="M49.23,87.5v3.8H35.87v-3.8h4.51V61.97h-4.51l-7.91-0.04c-2.03,0-2.87,0.93-2.87,3.01v3.27h6.5v3.8h-6.5V91.3H20.7V72.01
		h-4.2v-3.8h4.2V64.9c0-4.78,2.87-6.77,7.21-6.77h16.85V87.5H49.23z"/>
	<path d="M52.02,79.8c0-7.3,5.17-12.16,11.37-12.16c7.03,0,11.15,5,11.15,11.9v1.37h-18c0.04,4.51,2.79,7.17,7.08,7.17
		c2.87,0,5.57-1.59,6.37-4.47l4.11,1.02c-1.42,4.56-5.44,7.25-10.48,7.25C56.57,91.87,52.02,86.88,52.02,79.8z M70.06,77.59
		c-0.22-3.94-3.18-6.1-6.68-6.1c-3.54,0-6.5,2.57-6.81,6.1H70.06z"/>
	<path class="st0" d="M92.3,77.64l12.04-7.97v5.09l-8.89,5.62v0.44l8.89,5.57v5l-12.03-7.96L92.3,77.64z"/>
	<path d="M108.14,79.75c0-6.94,4.47-12.12,10.84-12.12c4.47,0,6.59,2.65,7.47,3.89h0.35v-13.4h4.38V91.3h-4.29v-3.18h-0.31
		c-0.8,1.02-2.83,3.76-7.34,3.76C112.87,91.87,108.14,86.79,108.14,79.75z M126.93,79.8c0-5.13-3.27-8.09-7.21-8.09
		c-4.11,0-7.16,3.36-7.16,8.09c0,4.86,3.18,8.05,7.21,8.05C124.15,87.85,126.93,84.18,126.93,79.8z"/>
	<path d="M136.35,79.8c0-7.3,5.17-12.16,11.37-12.16c7.03,0,11.15,5,11.15,11.9v1.37h-18c0.04,4.51,2.79,7.17,7.08,7.17
		c2.87,0,5.57-1.59,6.37-4.47l4.11,1.02c-1.42,4.56-5.44,7.25-10.48,7.25C140.91,91.87,136.35,86.88,136.35,79.8z M154.4,77.59
		c-0.22-3.94-3.18-6.1-6.68-6.1c-3.54,0-6.5,2.57-6.81,6.1H154.4z"/>
	<path d="M161.12,68.21h4.64l6.32,18.97h0.35l6.28-18.97h4.78l-8.23,23.09h-5.88L161.12,68.21z"/>
	<polygon points="90.7,80.77 79.66,88.26 79.66,83.26 87.84,78.22 87.84,77.86 79.66,72.78 79.66,67.78 90.7,75.13 	"/>
</g>
<g>
	<path class="st0" d="M1141.42,65.94l56.14-37.17v23.71l-41.45,26.19v2.06l41.45,25.98v23.3l-56.09-37.12L1141.42,65.94z"/>
	<polygon points="1133.94,80.54 1082.44,115.46 1082.44,92.16 1120.59,68.65 1120.59,67 1082.44,43.28 1082.44,19.98 1133.94,54.27 
			"/>
</g>
</svg>
